<?xml version="1.0" standalone="no"?>
<!DOCTYPE svg PUBLIC "-//W3C//DTD SVG 20010904//EN"
 "http://www.w3.org/TR/2001/REC-SVG-20010904/DTD/svg10.dtd">
<svg version="1.0" xmlns="http://www.w3.org/2000/svg"
 width="1280.000000pt" height="1174.000000pt" viewBox="0 0 1280.000000 1174.000000"
 preserveAspectRatio="xMidYMid meet">
<metadata>
Created by potrace 1.15, written by Peter Selinger 2001-2017
</metadata>
<g transform="translate(0.000000,1174.000000) scale(0.100000,-0.100000)"
fill="#000000" stroke="none">
<path d="M6365 11734 c-634 -42 -1292 -211 -1810 -464 -531 -259 -1080 -662
-1565 -1150 -564 -566 -903 -1052 -1029 -1478 -46 -156 -56 -231 -55 -422 0
-192 16 -293 73 -467 83 -253 320 -679 385 -691 17 -4 19 1 13 50 -6 62 -32
126 -99 248 -67 122 -80 179 -73 320 6 118 5 122 -37 181 -9 13 -20 36 -23 51
l-7 28 63 -29 c35 -15 94 -39 130 -51 l66 -24 6 -150 c9 -228 52 -403 156
-636 99 -220 261 -480 305 -488 17 -4 19 1 13 50 -6 62 -32 126 -99 248 -67
122 -80 179 -73 320 4 85 2 120 -7 136 -7 11 -23 36 -35 55 -13 19 -23 42 -23
52 0 16 2 17 31 1 48 -24 490 -189 789 -294 203 -72 271 -100 290 -120 60 -65
157 -105 290 -120 109 -12 192 -42 309 -109 96 -55 204 -106 289 -136 28 -11
52 -21 52 -24 -1 -11 -175 -90 -254 -117 -44 -14 -148 -41 -230 -59 -83 -18
-177 -43 -209 -55 -179 -67 -366 -258 -619 -630 -113 -166 -150 -240 -119
-240 19 0 161 121 342 290 358 337 535 456 716 482 110 16 146 5 211 -67 48
-52 181 -263 173 -275 -2 -3 -43 -15 -92 -27 -159 -39 -243 -87 -378 -217
-124 -120 -341 -405 -438 -576 -103 -180 -32 -137 318 191 268 251 404 355
553 424 132 62 121 66 220 -82 46 -70 115 -166 152 -213 79 -100 279 -302 380
-383 39 -31 110 -104 157 -161 241 -290 730 -666 1116 -859 311 -156 582 -229
1276 -347 521 -89 816 -163 1035 -262 l65 -29 95 -147 c350 -544 643 -1066
1065 -1892 407 -799 439 -850 540 -866 27 -4 68 -2 94 4 25 6 46 10 47 9 0 -1
34 -65 74 -142 105 -200 165 -299 199 -328 93 -78 209 -57 521 94 431 209 861
482 821 522 -20 20 -168 -41 -518 -212 -191 -93 -379 -179 -417 -190 -142 -43
-243 -19 -331 81 -45 51 -155 221 -155 240 0 8 192 108 207 108 5 0 29 -38 56
-84 47 -83 129 -186 149 -186 17 0 -1 69 -48 185 -25 61 -48 117 -50 126 -4
11 24 31 103 74 294 160 532 330 504 358 -21 21 -269 -82 -550 -230 -84 -44
-126 -62 -129 -54 -2 7 -46 97 -98 199 -101 203 -209 394 -264 469 -33 45 -35
47 -38 23 -6 -50 137 -409 264 -662 l44 -87 -78 -29 c-75 -29 -154 -54 -158
-49 -1 1 -82 162 -179 357 -296 593 -501 972 -768 1420 -245 412 -514 807
-630 929 -55 58 -147 123 -204 143 -27 10 -56 43 -144 165 -228 314 -327 368
-842 458 -54 10 -97 19 -95 20 2 1 57 24 123 50 66 26 158 67 205 90 l85 42
60 -49 c32 -26 65 -48 72 -48 25 0 14 57 -31 161 l-15 37 76 31 c62 25 79 29
89 19 6 -7 65 -76 130 -153 65 -77 154 -180 199 -230 256 -284 1022 -1508
1065 -1700 6 -27 25 -72 42 -98 33 -52 140 -146 146 -128 4 13 -63 172 -125
295 -118 235 -435 807 -551 994 -27 42 -58 95 -71 117 l-23 40 32 -35 c236
-262 1009 -1503 1050 -1685 6 -27 25 -72 42 -98 33 -52 140 -146 146 -128 16
49 -429 891 -717 1354 -47 76 -146 220 -220 320 -73 100 -148 214 -166 252
-36 77 -134 230 -246 381 -225 305 -440 534 -504 534 -23 0 -62 44 -47 54 24
15 200 79 432 158 376 128 329 120 381 62 24 -26 98 -107 165 -179 l120 -130
68 -155 c309 -703 576 -1106 1370 -2070 349 -424 665 -780 739 -832 l32 -23
-19 30 c-11 17 -35 50 -54 75 -50 65 2 9 111 -121 127 -150 392 -434 428 -460
l31 -22 -11 22 c-15 27 -200 260 -436 546 -648 788 -922 1141 -1143 1471 -263
394 -506 872 -558 1099 -21 92 -14 188 21 290 50 147 116 247 327 499 54 65
97 120 94 123 -14 14 -258 -226 -347 -342 -65 -85 -94 -147 -129 -277 -32
-120 -54 -178 -68 -178 -16 0 -74 51 -235 204 -153 145 -156 150 -168 204 -23
111 9 262 83 404 28 52 36 59 87 79 153 58 652 232 771 269 182 56 222 75 281
134 60 60 127 191 158 311 48 185 67 531 41 740 -58 471 -311 961 -762 1478
-131 150 -921 930 -1053 1041 -223 185 -485 376 -666 485 l-79 48 -4 204 c-6
294 -42 481 -126 651 -91 184 -219 317 -407 424 -64 36 -77 49 -104 100 -75
141 -189 266 -325 356 -239 159 -640 294 -1023 344 -112 15 -531 26 -656 18z
m3790 -6699 c-8 -20 -26 -82 -41 -138 -27 -105 -48 -157 -63 -157 -18 0 -237
197 -229 206 7 6 323 123 336 123 9 1 9 -7 -3 -34z m130 -630 c49 -55 139
-154 200 -220 111 -120 111 -120 179 -275 77 -176 241 -508 305 -620 127 -219
307 -486 513 -757 76 -101 136 -183 134 -183 -8 0 -517 640 -640 804 -308 411
-571 846 -719 1186 -51 117 -76 182 -65 170 3 -3 45 -50 93 -105z m-2432 -276
c393 -80 678 -183 862 -310 65 -44 148 -119 133 -119 -4 0 -89 13 -190 30
-101 16 -322 48 -491 70 -170 22 -357 52 -415 66 -136 31 -415 125 -405 135
15 14 358 148 381 149 13 0 69 -9 125 -21z m3798 -1816 c13 -16 12 -17 -3 -4
-10 7 -18 15 -18 17 0 8 8 3 21 -13z m-1249 -818 c244 -462 362 -708 218 -455
-58 103 -336 659 -322 645 5 -5 52 -91 104 -190z m1789 158 c13 -16 12 -17 -3
-4 -10 7 -18 15 -18 17 0 8 8 3 21 -13z"/>
<path d="M3054 7229 c-10 -17 26 -48 100 -85 85 -42 146 -55 146 -31 0 43
-225 150 -246 116z"/>
<path d="M2302 6761 c-86 -68 -279 -303 -659 -801 -324 -424 -715 -882 -1158
-1356 -256 -274 -485 -540 -485 -565 0 -42 262 188 664 581 328 322 349 347
831 980 492 646 710 922 824 1042 54 58 64 75 69 113 4 40 2 45 -16 45 -11 0
-43 -18 -70 -39z"/>
<path d="M2809 6266 c-84 -64 -300 -324 -609 -731 -355 -469 -738 -921 -1206
-1420 -184 -197 -324 -354 -415 -467 l-78 -97 -168 130 c-179 138 -304 212
-326 190 -19 -19 32 -104 123 -207 77 -86 273 -272 356 -336 22 -18 55 -53 72
-78 75 -108 350 -368 541 -510 230 -172 382 -236 642 -271 87 -12 289 -4 272
10 -4 4 -51 23 -103 41 -171 60 -377 171 -657 357 -95 63 -173 116 -173 118 0
1 30 -4 68 -13 41 -9 121 -15 204 -16 111 -1 138 -4 138 -15 0 -34 177 -157
197 -138 19 20 -117 162 -164 172 -188 40 -542 228 -885 469 l-117 83 82 65
c215 170 824 769 984 968 55 69 209 269 343 445 548 721 774 1007 886 1125 61
64 74 88 74 129 0 42 -24 41 -81 -3z"/>
<path d="M8734 4516 c-20 -79 129 -363 285 -544 63 -73 157 -152 181 -152 40
0 -40 199 -165 409 -90 151 -152 231 -213 278 -52 40 -79 42 -88 9z"/>
<path d="M997 3483 c-17 -16 -4 -49 31 -82 40 -38 148 -98 159 -88 14 15 -92
139 -138 163 -31 16 -42 17 -52 7z"/>
<path d="M10440 2067 c0 -87 264 -687 428 -970 48 -84 135 -187 148 -175 37
37 -341 840 -517 1100 -47 68 -59 77 -59 45z"/>
</g>
</svg>
